<mxfile host="app.diagrams.net" modified="2022-04-13T10:18:12.392Z" agent="5.0 (X11; Linux x86_64) AppleWebKit/537.36 (KHTML, like Gecko) Chrome/99.0.4844.51 Safari/537.36 Edg/99.0.1150.38" etag="TMqs8-N8SfqD_mIgw_8l" version="16.2.6" type="github">
  <diagram id="frolMqYxQoQGtpQ2CzU4" name="第 1 页">
    <mxGraphModel dx="1368" dy="945" grid="1" gridSize="10" guides="1" tooltips="1" connect="1" arrows="1" fold="1" page="1" pageScale="1" pageWidth="850" pageHeight="1100" math="0" shadow="0">
      <root>
        <mxCell id="0" />
        <mxCell id="1" parent="0" />
        <mxCell id="wlxEGy2Q7AkGiaXGp4Vi-1" value="" style="rounded=0;whiteSpace=wrap;html=1;sketch=1;" vertex="1" parent="1">
          <mxGeometry x="130" y="120" width="1110" height="720" as="geometry" />
        </mxCell>
        <mxCell id="wlxEGy2Q7AkGiaXGp4Vi-2" value="" style="rounded=0;whiteSpace=wrap;html=1;sketch=1;" vertex="1" parent="1">
          <mxGeometry x="890" y="137" width="330" height="313" as="geometry" />
        </mxCell>
        <mxCell id="wlxEGy2Q7AkGiaXGp4Vi-3" style="edgeStyle=orthogonalEdgeStyle;rounded=0;orthogonalLoop=1;jettySize=auto;html=1;fillColor=#d5e8d4;strokeColor=#00CC00;sketch=1;" edge="1" parent="1" source="wlxEGy2Q7AkGiaXGp4Vi-5" target="wlxEGy2Q7AkGiaXGp4Vi-9">
          <mxGeometry relative="1" as="geometry" />
        </mxCell>
        <mxCell id="wlxEGy2Q7AkGiaXGp4Vi-4" style="edgeStyle=orthogonalEdgeStyle;rounded=0;orthogonalLoop=1;jettySize=auto;html=1;entryX=0.5;entryY=0;entryDx=0;entryDy=0;strokeColor=#000000;sketch=1;" edge="1" parent="1" source="wlxEGy2Q7AkGiaXGp4Vi-5" target="wlxEGy2Q7AkGiaXGp4Vi-13">
          <mxGeometry relative="1" as="geometry" />
        </mxCell>
        <mxCell id="wlxEGy2Q7AkGiaXGp4Vi-5" value="Web应用防火墙(WAF)" style="rounded=0;whiteSpace=wrap;html=1;sketch=1;" vertex="1" parent="1">
          <mxGeometry x="240" y="180" width="120" height="60" as="geometry" />
        </mxCell>
        <mxCell id="wlxEGy2Q7AkGiaXGp4Vi-6" style="edgeStyle=orthogonalEdgeStyle;rounded=0;orthogonalLoop=1;jettySize=auto;html=1;sketch=1;" edge="1" parent="1" source="wlxEGy2Q7AkGiaXGp4Vi-7" target="wlxEGy2Q7AkGiaXGp4Vi-5">
          <mxGeometry relative="1" as="geometry" />
        </mxCell>
        <mxCell id="wlxEGy2Q7AkGiaXGp4Vi-7" value="公网访问" style="shape=umlActor;verticalLabelPosition=bottom;verticalAlign=top;html=1;sketch=1;" vertex="1" parent="1">
          <mxGeometry x="285" y="20" width="30" height="60" as="geometry" />
        </mxCell>
        <mxCell id="wlxEGy2Q7AkGiaXGp4Vi-8" style="edgeStyle=orthogonalEdgeStyle;rounded=0;orthogonalLoop=1;jettySize=auto;html=1;strokeColor=#00CC00;sketch=1;" edge="1" parent="1" source="wlxEGy2Q7AkGiaXGp4Vi-9" target="wlxEGy2Q7AkGiaXGp4Vi-10">
          <mxGeometry relative="1" as="geometry" />
        </mxCell>
        <mxCell id="wlxEGy2Q7AkGiaXGp4Vi-9" value="内容分发网络&lt;br&gt;（CDN)" style="rounded=0;whiteSpace=wrap;html=1;sketch=1;" vertex="1" parent="1">
          <mxGeometry x="403" y="180" width="120" height="60" as="geometry" />
        </mxCell>
        <mxCell id="wlxEGy2Q7AkGiaXGp4Vi-10" value="对象存储服务&lt;br&gt;(OBS)" style="rounded=0;whiteSpace=wrap;html=1;sketch=1;" vertex="1" parent="1">
          <mxGeometry x="560" y="180" width="120" height="60" as="geometry" />
        </mxCell>
        <mxCell id="wlxEGy2Q7AkGiaXGp4Vi-11" value="华为云" style="text;html=1;strokeColor=none;fillColor=none;align=center;verticalAlign=middle;whiteSpace=wrap;rounded=0;sketch=1;" vertex="1" parent="1">
          <mxGeometry x="150" y="140" width="60" height="30" as="geometry" />
        </mxCell>
        <mxCell id="wlxEGy2Q7AkGiaXGp4Vi-12" style="edgeStyle=orthogonalEdgeStyle;rounded=0;orthogonalLoop=1;jettySize=auto;html=1;strokeColor=#000000;sketch=1;" edge="1" parent="1" source="wlxEGy2Q7AkGiaXGp4Vi-13" target="wlxEGy2Q7AkGiaXGp4Vi-15">
          <mxGeometry relative="1" as="geometry" />
        </mxCell>
        <mxCell id="wlxEGy2Q7AkGiaXGp4Vi-13" value="API网关(APIG)" style="rounded=0;whiteSpace=wrap;html=1;sketch=1;" vertex="1" parent="1">
          <mxGeometry x="240" y="273" width="120" height="60" as="geometry" />
        </mxCell>
        <mxCell id="wlxEGy2Q7AkGiaXGp4Vi-14" style="edgeStyle=orthogonalEdgeStyle;rounded=0;orthogonalLoop=1;jettySize=auto;html=1;strokeColor=#000000;sketch=1;" edge="1" parent="1" source="wlxEGy2Q7AkGiaXGp4Vi-15" target="wlxEGy2Q7AkGiaXGp4Vi-17">
          <mxGeometry relative="1" as="geometry" />
        </mxCell>
        <mxCell id="wlxEGy2Q7AkGiaXGp4Vi-15" value="ELB负载均衡(ELB)" style="rounded=0;whiteSpace=wrap;html=1;sketch=1;" vertex="1" parent="1">
          <mxGeometry x="240" y="360" width="120" height="60" as="geometry" />
        </mxCell>
        <mxCell id="wlxEGy2Q7AkGiaXGp4Vi-16" value="" style="group;sketch=1;" vertex="1" connectable="0" parent="1">
          <mxGeometry x="220" y="460" width="610" height="350" as="geometry" />
        </mxCell>
        <mxCell id="wlxEGy2Q7AkGiaXGp4Vi-17" value="" style="rounded=0;whiteSpace=wrap;html=1;sketch=1;" vertex="1" parent="wlxEGy2Q7AkGiaXGp4Vi-16">
          <mxGeometry width="610" height="350" as="geometry" />
        </mxCell>
        <mxCell id="wlxEGy2Q7AkGiaXGp4Vi-18" value="云容器引擎（CCE）" style="text;html=1;strokeColor=none;fillColor=none;align=center;verticalAlign=middle;whiteSpace=wrap;rounded=0;sketch=1;" vertex="1" parent="wlxEGy2Q7AkGiaXGp4Vi-16">
          <mxGeometry x="10" y="10.294117647058822" width="80" height="30.88235294117647" as="geometry" />
        </mxCell>
        <mxCell id="wlxEGy2Q7AkGiaXGp4Vi-19" value="" style="rounded=0;whiteSpace=wrap;html=1;sketch=1;" vertex="1" parent="wlxEGy2Q7AkGiaXGp4Vi-16">
          <mxGeometry x="54" y="58.67647058823529" width="455" height="216.17647058823528" as="geometry" />
        </mxCell>
        <mxCell id="wlxEGy2Q7AkGiaXGp4Vi-20" value="" style="rounded=0;whiteSpace=wrap;html=1;sketch=1;" vertex="1" parent="wlxEGy2Q7AkGiaXGp4Vi-16">
          <mxGeometry x="64" y="68.97058823529412" width="455" height="216.17647058823528" as="geometry" />
        </mxCell>
        <mxCell id="wlxEGy2Q7AkGiaXGp4Vi-21" value="节点（Node)" style="text;html=1;strokeColor=none;fillColor=none;align=center;verticalAlign=middle;whiteSpace=wrap;rounded=0;sketch=1;" vertex="1" parent="wlxEGy2Q7AkGiaXGp4Vi-16">
          <mxGeometry x="69" y="79.26470588235294" width="80" height="30.88235294117647" as="geometry" />
        </mxCell>
        <mxCell id="wlxEGy2Q7AkGiaXGp4Vi-22" value="" style="rounded=0;whiteSpace=wrap;html=1;sketch=1;" vertex="1" parent="wlxEGy2Q7AkGiaXGp4Vi-16">
          <mxGeometry x="160" y="110.1470588235294" width="150" height="136.91176470588235" as="geometry" />
        </mxCell>
        <mxCell id="wlxEGy2Q7AkGiaXGp4Vi-23" value="" style="rounded=0;whiteSpace=wrap;html=1;sketch=1;" vertex="1" parent="wlxEGy2Q7AkGiaXGp4Vi-16">
          <mxGeometry x="330" y="110.1470588235294" width="150" height="136.91176470588235" as="geometry" />
        </mxCell>
        <mxCell id="wlxEGy2Q7AkGiaXGp4Vi-24" value="POD" style="text;html=1;strokeColor=none;fillColor=none;align=center;verticalAlign=middle;whiteSpace=wrap;rounded=0;sketch=1;" vertex="1" parent="wlxEGy2Q7AkGiaXGp4Vi-16">
          <mxGeometry x="157" y="110.1470588235294" width="80" height="30.88235294117647" as="geometry" />
        </mxCell>
        <mxCell id="wlxEGy2Q7AkGiaXGp4Vi-25" value="POD" style="text;html=1;strokeColor=none;fillColor=none;align=center;verticalAlign=middle;whiteSpace=wrap;rounded=0;sketch=1;" vertex="1" parent="wlxEGy2Q7AkGiaXGp4Vi-16">
          <mxGeometry x="327" y="110.1470588235294" width="80" height="30.88235294117647" as="geometry" />
        </mxCell>
        <mxCell id="wlxEGy2Q7AkGiaXGp4Vi-26" value="应用1" style="rounded=0;whiteSpace=wrap;html=1;sketch=1;" vertex="1" parent="wlxEGy2Q7AkGiaXGp4Vi-16">
          <mxGeometry x="175" y="147.72058823529412" width="120" height="37.57352941176471" as="geometry" />
        </mxCell>
        <mxCell id="wlxEGy2Q7AkGiaXGp4Vi-27" value="应用2" style="rounded=0;whiteSpace=wrap;html=1;sketch=1;" vertex="1" parent="wlxEGy2Q7AkGiaXGp4Vi-16">
          <mxGeometry x="175" y="195.58823529411765" width="120" height="37.57352941176471" as="geometry" />
        </mxCell>
        <mxCell id="wlxEGy2Q7AkGiaXGp4Vi-28" value="应用1" style="rounded=0;whiteSpace=wrap;html=1;sketch=1;" vertex="1" parent="wlxEGy2Q7AkGiaXGp4Vi-16">
          <mxGeometry x="345" y="147.72058823529412" width="120" height="37.57352941176471" as="geometry" />
        </mxCell>
        <mxCell id="wlxEGy2Q7AkGiaXGp4Vi-29" value="应用2" style="rounded=0;whiteSpace=wrap;html=1;sketch=1;" vertex="1" parent="wlxEGy2Q7AkGiaXGp4Vi-16">
          <mxGeometry x="345" y="195.58823529411765" width="120" height="37.57352941176471" as="geometry" />
        </mxCell>
        <mxCell id="wlxEGy2Q7AkGiaXGp4Vi-30" value="" style="group;sketch=1;" vertex="1" connectable="0" parent="1">
          <mxGeometry x="890" y="476" width="330" height="340" as="geometry" />
        </mxCell>
        <mxCell id="wlxEGy2Q7AkGiaXGp4Vi-31" value="" style="rounded=0;whiteSpace=wrap;html=1;sketch=1;" vertex="1" parent="wlxEGy2Q7AkGiaXGp4Vi-30">
          <mxGeometry width="330" height="340" as="geometry" />
        </mxCell>
        <mxCell id="wlxEGy2Q7AkGiaXGp4Vi-32" value="RDS" style="rounded=0;whiteSpace=wrap;html=1;sketch=1;" vertex="1" parent="wlxEGy2Q7AkGiaXGp4Vi-30">
          <mxGeometry x="90" y="45.33333333333333" width="180" height="68" as="geometry" />
        </mxCell>
        <mxCell id="wlxEGy2Q7AkGiaXGp4Vi-33" value="Redis" style="rounded=0;whiteSpace=wrap;html=1;sketch=1;" vertex="1" parent="wlxEGy2Q7AkGiaXGp4Vi-30">
          <mxGeometry x="90" y="136" width="180" height="68" as="geometry" />
        </mxCell>
        <mxCell id="wlxEGy2Q7AkGiaXGp4Vi-34" value="Kafka" style="rounded=0;whiteSpace=wrap;html=1;sketch=1;" vertex="1" parent="wlxEGy2Q7AkGiaXGp4Vi-30">
          <mxGeometry x="90" y="226.66666666666666" width="180" height="68" as="geometry" />
        </mxCell>
        <mxCell id="wlxEGy2Q7AkGiaXGp4Vi-35" value="服务中间件" style="text;html=1;strokeColor=none;fillColor=none;align=center;verticalAlign=middle;whiteSpace=wrap;rounded=0;sketch=1;" vertex="1" parent="wlxEGy2Q7AkGiaXGp4Vi-30">
          <mxGeometry width="135.00000000000003" height="34" as="geometry" />
        </mxCell>
        <mxCell id="wlxEGy2Q7AkGiaXGp4Vi-36" value="" style="endArrow=classic;startArrow=classic;html=1;rounded=0;strokeColor=#000000;entryX=-0.007;entryY=0.534;entryDx=0;entryDy=0;entryPerimeter=0;sketch=1;" edge="1" parent="1" source="wlxEGy2Q7AkGiaXGp4Vi-28" target="wlxEGy2Q7AkGiaXGp4Vi-31">
          <mxGeometry width="50" height="50" relative="1" as="geometry">
            <mxPoint x="840" y="580" as="sourcePoint" />
            <mxPoint x="890" y="530" as="targetPoint" />
          </mxGeometry>
        </mxCell>
        <mxCell id="wlxEGy2Q7AkGiaXGp4Vi-37" value="" style="endArrow=classic;startArrow=classic;html=1;rounded=0;strokeColor=#000000;exitX=-0.017;exitY=0.539;exitDx=0;exitDy=0;exitPerimeter=0;sketch=1;" edge="1" parent="1" source="wlxEGy2Q7AkGiaXGp4Vi-31">
          <mxGeometry width="50" height="50" relative="1" as="geometry">
            <mxPoint x="900" y="630" as="sourcePoint" />
            <mxPoint x="680" y="668" as="targetPoint" />
          </mxGeometry>
        </mxCell>
        <mxCell id="wlxEGy2Q7AkGiaXGp4Vi-38" value="容器镜像服务(SWR)" style="rounded=0;whiteSpace=wrap;html=1;sketch=1;" vertex="1" parent="1">
          <mxGeometry x="620" y="290" width="130" height="60" as="geometry" />
        </mxCell>
        <mxCell id="wlxEGy2Q7AkGiaXGp4Vi-39" value="" style="rounded=0;whiteSpace=wrap;html=1;sketch=1;" vertex="1" parent="1">
          <mxGeometry x="908" y="340" width="292" height="100" as="geometry" />
        </mxCell>
        <mxCell id="wlxEGy2Q7AkGiaXGp4Vi-40" value="日志服务LTS" style="rounded=0;whiteSpace=wrap;html=1;sketch=1;" vertex="1" parent="1">
          <mxGeometry x="923" y="371" width="70" height="60" as="geometry" />
        </mxCell>
        <mxCell id="wlxEGy2Q7AkGiaXGp4Vi-41" value="应用运维管理AOM" style="rounded=0;whiteSpace=wrap;html=1;sketch=1;" vertex="1" parent="1">
          <mxGeometry x="1019" y="370" width="70" height="60" as="geometry" />
        </mxCell>
        <mxCell id="wlxEGy2Q7AkGiaXGp4Vi-42" value="应用性能管理（APM)" style="rounded=0;whiteSpace=wrap;html=1;sketch=1;" vertex="1" parent="1">
          <mxGeometry x="1111" y="370" width="70" height="60" as="geometry" />
        </mxCell>
        <mxCell id="wlxEGy2Q7AkGiaXGp4Vi-43" value="应用运维管理" style="text;html=1;strokeColor=none;fillColor=none;align=center;verticalAlign=middle;whiteSpace=wrap;rounded=0;sketch=1;" vertex="1" parent="1">
          <mxGeometry x="908" y="340" width="92" height="30" as="geometry" />
        </mxCell>
        <mxCell id="wlxEGy2Q7AkGiaXGp4Vi-44" value="" style="rounded=0;whiteSpace=wrap;html=1;sketch=1;" vertex="1" parent="1">
          <mxGeometry x="909" y="177" width="292" height="150" as="geometry" />
        </mxCell>
        <mxCell id="wlxEGy2Q7AkGiaXGp4Vi-45" value="" style="endArrow=classic;html=1;rounded=0;strokeColor=#0000CC;entryX=-0.001;entryY=0.546;entryDx=0;entryDy=0;entryPerimeter=0;exitX=0.854;exitY=-0.002;exitDx=0;exitDy=0;exitPerimeter=0;sketch=1;" edge="1" parent="1" source="wlxEGy2Q7AkGiaXGp4Vi-17" target="wlxEGy2Q7AkGiaXGp4Vi-39">
          <mxGeometry width="50" height="50" relative="1" as="geometry">
            <mxPoint x="760" y="440" as="sourcePoint" />
            <mxPoint x="810" y="390" as="targetPoint" />
            <Array as="points">
              <mxPoint x="740" y="395" />
            </Array>
          </mxGeometry>
        </mxCell>
        <mxCell id="wlxEGy2Q7AkGiaXGp4Vi-46" value="" style="group;sketch=1;" vertex="1" connectable="0" parent="1">
          <mxGeometry x="799" y="39" width="440" height="64" as="geometry" />
        </mxCell>
        <mxCell id="wlxEGy2Q7AkGiaXGp4Vi-47" value="" style="rounded=0;whiteSpace=wrap;html=1;sketch=1;" vertex="1" parent="wlxEGy2Q7AkGiaXGp4Vi-46">
          <mxGeometry y="4" width="440" height="60" as="geometry" />
        </mxCell>
        <mxCell id="wlxEGy2Q7AkGiaXGp4Vi-48" value="" style="endArrow=classic;html=1;rounded=0;strokeColor=#000000;sketch=1;" edge="1" parent="wlxEGy2Q7AkGiaXGp4Vi-46">
          <mxGeometry width="50" height="50" relative="1" as="geometry">
            <mxPoint x="22" y="19" as="sourcePoint" />
            <mxPoint x="102" y="19" as="targetPoint" />
          </mxGeometry>
        </mxCell>
        <mxCell id="wlxEGy2Q7AkGiaXGp4Vi-49" value="Api服务调用流" style="text;html=1;strokeColor=none;fillColor=none;align=center;verticalAlign=middle;whiteSpace=wrap;rounded=0;sketch=1;" vertex="1" parent="wlxEGy2Q7AkGiaXGp4Vi-46">
          <mxGeometry x="102" width="110" height="30" as="geometry" />
        </mxCell>
        <mxCell id="wlxEGy2Q7AkGiaXGp4Vi-50" value="" style="endArrow=classic;html=1;rounded=0;strokeColor=#00CC00;sketch=1;" edge="1" parent="wlxEGy2Q7AkGiaXGp4Vi-46">
          <mxGeometry width="50" height="50" relative="1" as="geometry">
            <mxPoint x="232" y="19" as="sourcePoint" />
            <mxPoint x="312" y="19" as="targetPoint" />
          </mxGeometry>
        </mxCell>
        <mxCell id="wlxEGy2Q7AkGiaXGp4Vi-51" value="静态资源访问流" style="text;html=1;strokeColor=none;fillColor=none;align=center;verticalAlign=middle;whiteSpace=wrap;rounded=0;sketch=1;" vertex="1" parent="wlxEGy2Q7AkGiaXGp4Vi-46">
          <mxGeometry x="312" y="1" width="110" height="30" as="geometry" />
        </mxCell>
        <mxCell id="wlxEGy2Q7AkGiaXGp4Vi-52" value="" style="endArrow=classic;html=1;rounded=0;strokeColor=#999900;sketch=1;" edge="1" parent="wlxEGy2Q7AkGiaXGp4Vi-46">
          <mxGeometry width="50" height="50" relative="1" as="geometry">
            <mxPoint x="22" y="50" as="sourcePoint" />
            <mxPoint x="102" y="50" as="targetPoint" />
          </mxGeometry>
        </mxCell>
        <mxCell id="wlxEGy2Q7AkGiaXGp4Vi-53" value="自动集成部署流" style="text;html=1;strokeColor=none;fillColor=none;align=center;verticalAlign=middle;whiteSpace=wrap;rounded=0;sketch=1;" vertex="1" parent="wlxEGy2Q7AkGiaXGp4Vi-46">
          <mxGeometry x="102" y="31" width="110" height="30" as="geometry" />
        </mxCell>
        <mxCell id="wlxEGy2Q7AkGiaXGp4Vi-54" value="" style="endArrow=classic;html=1;rounded=0;strokeColor=#0066CC;sketch=1;" edge="1" parent="wlxEGy2Q7AkGiaXGp4Vi-46">
          <mxGeometry width="50" height="50" relative="1" as="geometry">
            <mxPoint x="232" y="48.66" as="sourcePoint" />
            <mxPoint x="312" y="48.66" as="targetPoint" />
          </mxGeometry>
        </mxCell>
        <mxCell id="wlxEGy2Q7AkGiaXGp4Vi-55" value="系统监控数据流" style="text;html=1;strokeColor=none;fillColor=none;align=center;verticalAlign=middle;whiteSpace=wrap;rounded=0;sketch=1;" vertex="1" parent="wlxEGy2Q7AkGiaXGp4Vi-46">
          <mxGeometry x="312" y="31" width="110" height="30" as="geometry" />
        </mxCell>
        <mxCell id="wlxEGy2Q7AkGiaXGp4Vi-56" value="" style="endArrow=classic;html=1;rounded=0;strokeColor=#0000CC;entryX=0.006;entryY=0.891;entryDx=0;entryDy=0;entryPerimeter=0;sketch=1;" edge="1" parent="1" target="wlxEGy2Q7AkGiaXGp4Vi-39">
          <mxGeometry width="50" height="50" relative="1" as="geometry">
            <mxPoint x="910" y="549.9999999999998" as="sourcePoint" />
            <mxPoint x="810" y="390" as="targetPoint" />
            <Array as="points">
              <mxPoint x="850" y="550" />
              <mxPoint x="850" y="429" />
            </Array>
          </mxGeometry>
        </mxCell>
        <mxCell id="wlxEGy2Q7AkGiaXGp4Vi-57" value="" style="endArrow=classic;html=1;rounded=0;strokeColor=#CCCC00;exitX=0;exitY=1;exitDx=0;exitDy=0;entryX=1;entryY=0.5;entryDx=0;entryDy=0;sketch=1;" edge="1" parent="1" source="wlxEGy2Q7AkGiaXGp4Vi-59" target="wlxEGy2Q7AkGiaXGp4Vi-10">
          <mxGeometry width="50" height="50" relative="1" as="geometry">
            <mxPoint x="760" y="440" as="sourcePoint" />
            <mxPoint x="810" y="390" as="targetPoint" />
          </mxGeometry>
        </mxCell>
        <mxCell id="wlxEGy2Q7AkGiaXGp4Vi-58" value="" style="endArrow=classic;html=1;rounded=0;strokeColor=#CCCC00;exitX=-0.002;exitY=0.554;exitDx=0;exitDy=0;exitPerimeter=0;sketch=1;" edge="1" parent="1" source="wlxEGy2Q7AkGiaXGp4Vi-44" target="wlxEGy2Q7AkGiaXGp4Vi-38">
          <mxGeometry width="50" height="50" relative="1" as="geometry">
            <mxPoint x="918" y="217.5" as="sourcePoint" />
            <mxPoint x="690" y="220" as="targetPoint" />
            <Array as="points">
              <mxPoint x="685" y="260" />
            </Array>
          </mxGeometry>
        </mxCell>
        <mxCell id="wlxEGy2Q7AkGiaXGp4Vi-59" value="DevOps-开发\CI/CD\测试" style="text;html=1;strokeColor=none;fillColor=none;align=center;verticalAlign=middle;whiteSpace=wrap;rounded=0;sketch=1;" vertex="1" parent="1">
          <mxGeometry x="908" y="180" width="182" height="30" as="geometry" />
        </mxCell>
        <mxCell id="wlxEGy2Q7AkGiaXGp4Vi-60" value="" style="endArrow=classic;html=1;rounded=0;strokeColor=#CCCC00;sketch=1;" edge="1" parent="1" source="wlxEGy2Q7AkGiaXGp4Vi-38">
          <mxGeometry width="50" height="50" relative="1" as="geometry">
            <mxPoint x="918" y="217.5" as="sourcePoint" />
            <mxPoint x="685" y="459.9999999999998" as="targetPoint" />
          </mxGeometry>
        </mxCell>
        <mxCell id="wlxEGy2Q7AkGiaXGp4Vi-61" value="应用管理与运维平台（ServiceStage)" style="text;html=1;strokeColor=none;fillColor=none;align=center;verticalAlign=middle;whiteSpace=wrap;rounded=0;sketch=1;" vertex="1" parent="1">
          <mxGeometry x="892" y="140" width="258" height="30" as="geometry" />
        </mxCell>
        <mxCell id="wlxEGy2Q7AkGiaXGp4Vi-62" value="项目管理" style="rounded=0;whiteSpace=wrap;html=1;sketch=1;" vertex="1" parent="1">
          <mxGeometry x="923" y="210" width="70" height="40" as="geometry" />
        </mxCell>
        <mxCell id="wlxEGy2Q7AkGiaXGp4Vi-63" value="代码托管" style="rounded=0;whiteSpace=wrap;html=1;sketch=1;" vertex="1" parent="1">
          <mxGeometry x="1005" y="210" width="70" height="40" as="geometry" />
        </mxCell>
        <mxCell id="wlxEGy2Q7AkGiaXGp4Vi-64" value="流水线" style="rounded=0;whiteSpace=wrap;html=1;sketch=1;" vertex="1" parent="1">
          <mxGeometry x="1087" y="210" width="70" height="40" as="geometry" />
        </mxCell>
        <mxCell id="wlxEGy2Q7AkGiaXGp4Vi-65" value="代码检查" style="rounded=0;whiteSpace=wrap;html=1;sketch=1;" vertex="1" parent="1">
          <mxGeometry x="924" y="260" width="70" height="40" as="geometry" />
        </mxCell>
        <mxCell id="wlxEGy2Q7AkGiaXGp4Vi-66" value="应用构建" style="rounded=0;whiteSpace=wrap;html=1;sketch=1;" vertex="1" parent="1">
          <mxGeometry x="1000" y="260" width="70" height="40" as="geometry" />
        </mxCell>
        <mxCell id="wlxEGy2Q7AkGiaXGp4Vi-67" value="应用部署" style="rounded=0;whiteSpace=wrap;html=1;sketch=1;" vertex="1" parent="1">
          <mxGeometry x="1085" y="260" width="70" height="40" as="geometry" />
        </mxCell>
      </root>
    </mxGraphModel>
  </diagram>
</mxfile>
